<svg width="64" height="64" viewBox="0 0 64 64" fill="none" xmlns="http://www.w3.org/2000/svg">
  <rect width="64" height="64" rx="13" fill="#0a0a1c"/>
  <polygon points="32,12 46,20 46,36 32,44 18,36 18,20" fill="none" stroke="#6C63FF" stroke-width="1.6"/>
  <line x1="32" y1="12" x2="32" y2="44" stroke="#6C63FF" stroke-width="0.8" stroke-dasharray="2 3" opacity="0.3"/>
  <line x1="18" y1="20" x2="46" y2="36" stroke="#6C63FF" stroke-width="0.8" stroke-dasharray="2 3" opacity="0.3"/>
  <line x1="46" y1="20" x2="18" y2="36" stroke="#6C63FF" stroke-width="0.8" stroke-dasharray="2 3" opacity="0.3"/>
  <circle cx="32" cy="12" r="2.5" fill="#00E5C3"/>
  <circle cx="46" cy="20" r="2" fill="#6C63FF"/>
  <circle cx="46" cy="36" r="2" fill="#6C63FF"/>
  <circle cx="32" cy="44" r="2.5" fill="#00E5C3"/>
  <circle cx="18" cy="36" r="2" fill="#6C63FF"/>
  <circle cx="18" cy="20" r="2" fill="#6C63FF"/>
  <circle cx="32" cy="28" r="5" fill="none" stroke="#00E5C3" stroke-width="1.4"/>
  <circle cx="32" cy="28" r="2" fill="#00E5C3"/>
  <line x1="32" y1="44" x2="32" y2="52" stroke="#6C63FF" stroke-width="1.4" stroke-linecap="round"/>
  <line x1="28" y1="52" x2="36" y2="52" stroke="#6C63FF" stroke-width="1.4" stroke-linecap="round"/>
</svg>